<svg width="1155" height="190" xmlns="http://www.w3.org/2000/svg" xmlns:xlink="http://www.w3.org/1999/xlink" overflow="hidden"><defs><clipPath id="clip0"><rect x="16" y="556" width="1155" height="190"/></clipPath></defs><g clip-path="url(#clip0)" transform="translate(-16 -556)"><path d="M64.5001 650.833 129.833 650.833 129.833 652.167 64.5001 652.167ZM129.833 651.5 124.5 644.833 137.833 651.5 124.5 658.167Z"/><rect x="138.5" y="594.5" width="160" height="113" fill="#FFFFFF"/><path d="M137.167 593.167 299.833 593.167 299.833 708.833 137.167 708.833ZM139.833 707.5 138.5 706.167 298.5 706.167 297.167 707.5 297.167 594.5 298.5 595.833 138.5 595.833 139.833 594.5Z"/><path d="M218.893 615.134 219.752 615.134C219.69 616.134 219.659 617.52 219.659 619.291L219.659 632.634C219.659 633.239 219.692 633.694 219.76 634.002 219.828 634.309 219.948 634.559 220.119 634.752 220.291 634.944 220.539 635.095 220.862 635.205 221.185 635.314 221.591 635.397 222.08 635.455 222.57 635.512 223.216 635.551 224.018 635.572L224.018 636.713 212.471 636.713 212.471 635.572C213.627 635.52 214.453 635.45 214.948 635.361 215.442 635.272 215.82 635.14 216.08 634.963 216.341 634.786 216.531 634.536 216.651 634.213 216.771 633.89 216.83 633.364 216.83 632.634L216.83 619.963C216.83 619.546 216.757 619.241 216.612 619.049 216.466 618.856 216.252 618.759 215.971 618.759 215.638 618.759 215.164 618.931 214.549 619.275 213.935 619.619 213.174 620.093 212.268 620.697L211.58 619.494Z" fill-rule="evenodd"/><text fill="#000000" fill-opacity="0" font-family="Arial,Arial_MSFontService,sans-serif" font-size="21.5781" x="211.58" y="634.015">1</text><path d="M192.76 668.886C192.072 668.886 191.372 669.222 190.658 669.894 189.944 670.566 189.374 671.344 188.947 672.23 188.52 673.115 188.129 674.365 187.775 675.98L187.65 676.558C187.484 677.329 187.4 678.084 187.4 678.824 187.4 679.584 187.528 680.131 187.783 680.464 188.038 680.798 188.468 680.964 189.072 680.964 189.593 680.964 190.067 680.847 190.494 680.613 190.921 680.378 191.325 679.996 191.705 679.464 192.085 678.933 192.455 678.248 192.814 677.41 193.174 676.571 193.484 675.568 193.744 674.402 194.004 673.235 194.135 672.152 194.135 671.152 194.135 670.381 194.023 669.811 193.799 669.441 193.575 669.071 193.228 668.886 192.76 668.886ZM185.869 666.589C186.734 666.589 187.424 666.831 187.939 667.316 188.455 667.8 188.713 668.438 188.713 669.23 188.713 669.49 188.681 669.74 188.619 669.98L188.775 670.105C189.734 668.886 190.661 667.996 191.556 667.433 192.452 666.871 193.489 666.589 194.666 666.589 195.843 666.589 196.757 667.016 197.408 667.871 198.059 668.725 198.385 669.959 198.385 671.574 198.385 672.98 198.181 674.376 197.775 675.761 197.369 677.147 196.786 678.342 196.025 679.347 195.265 680.352 194.309 681.144 193.158 681.722 192.007 682.3 190.708 682.589 189.26 682.589 188.333 682.589 187.437 682.428 186.572 682.105L185.978 684.886C185.885 685.344 185.817 685.701 185.775 685.956 185.734 686.212 185.713 686.449 185.713 686.667 185.713 687.115 185.83 687.438 186.064 687.636 186.299 687.834 186.702 687.964 187.275 688.027L187.103 689.058 180.603 689.058 184.556 671.48C184.713 670.782 184.791 670.266 184.791 669.933 184.791 669.589 184.734 669.324 184.619 669.136 184.504 668.949 184.306 668.855 184.025 668.855 183.702 668.855 183.353 669.001 182.978 669.292 182.603 669.584 182.166 670.016 181.666 670.589L180.541 669.464C181.583 668.402 182.507 667.657 183.314 667.23 184.122 666.803 184.973 666.589 185.869 666.589Z" fill-rule="evenodd"/><text fill="#000000" fill-opacity="0" font-family="Arial,Arial_MSFontService,sans-serif" font-size="22.4688" x="180.541" y="686.249">𝒑</text><path d="M217.956 663.152 220.175 663.152 220.175 672.152 228.691 672.152 228.691 674.23 220.175 674.23 220.175 683.23 217.956 683.23 217.956 674.23 209.441 674.23 209.441 672.152 217.956 672.152Z" fill-rule="evenodd"/><text fill="#000000" fill-opacity="0" font-family="Arial,Arial_MSFontService,sans-serif" font-size="20.0781" x="209.441" y="680.72">+</text><path d="M247.45 659.98C248.252 659.98 248.866 660.167 249.294 660.542 249.721 660.917 250.023 661.509 250.2 662.316 250.377 663.123 250.465 664.303 250.465 665.855 250.465 666.365 250.455 667.105 250.434 668.074L250.372 670.542C250.288 672.886 250.247 674.73 250.247 676.074 250.247 677.157 250.27 678.003 250.317 678.613 250.364 679.222 250.439 679.683 250.544 679.996 250.648 680.308 250.778 680.519 250.934 680.628 251.09 680.738 251.283 680.792 251.512 680.792 251.783 680.792 252.072 680.701 252.379 680.519 252.687 680.337 253.064 680.006 253.512 679.527L254.387 680.402C253.71 681.089 253.041 681.626 252.379 682.011 251.718 682.397 251.132 682.589 250.622 682.589 250.028 682.589 249.575 682.469 249.262 682.23 248.95 681.99 248.723 681.594 248.583 681.042 248.442 680.49 248.372 679.678 248.372 678.605 248.372 677.126 248.481 674.704 248.7 671.339L248.544 671.339C245.419 675.923 243.059 679.589 241.465 682.339L238.294 682.339 238.45 681.574C238.929 680.99 239.408 680.384 239.887 679.753 240.366 679.123 240.95 678.324 241.637 677.355L248.637 667.417C248.627 666.355 248.58 665.464 248.497 664.746 248.413 664.027 248.299 663.456 248.153 663.035 248.007 662.613 247.814 662.303 247.575 662.105 247.335 661.907 247.007 661.808 246.59 661.808 246.247 661.808 245.898 661.907 245.544 662.105 245.189 662.303 244.674 662.709 243.997 663.324L243.184 662.417C244.142 661.469 244.937 660.826 245.567 660.488 246.197 660.149 246.825 659.98 247.45 659.98Z" fill-rule="evenodd"/><text fill="#000000" fill-opacity="0" font-family="Arial,Arial_MSFontService,sans-serif" font-size="22.6094" x="238.294" y="679.763">𝜆</text><path d="M180.639 650.933 199.389 650.933 218.139 650.933 236.889 650.933 255.639 650.933 255.639 652.933 236.889 652.933 218.139 652.933 199.389 652.933 180.639 652.933Z" fill-rule="evenodd"/><path d="M298.5 650.833 363.5 650.833 363.5 652.167 298.5 652.167ZM363.5 651.5 358.167 644.833 371.5 651.5 358.167 658.167Z"/><path d="M531.5 650.833 705.214 650.833 705.214 652.167 531.5 652.167ZM705.214 651.5 699.881 644.833 713.214 651.5 699.881 658.167Z"/><text font-family="Cambria Math,Cambria Math_MSFontService,sans-serif" font-weight="400" font-size="37" transform="translate(743.162 660)">⋅ <tspan font-size="37" x="18.6667" y="0">⋅</tspan> <tspan font-size="37" x="37.3334" y="0">⋅</tspan> <tspan font-size="37" x="56" y="0"> </tspan></text><path d="M815.5 650.833 880.833 650.833 880.833 652.167 815.5 652.167ZM880.833 651.5 875.5 644.833 888.833 651.5 875.5 658.167Z"/><text font-family="Cambria Math,Cambria Math_MSFontService,sans-serif" font-weight="400" font-size="37" transform="translate(37.2525 660)">𝑠<tspan font-size="37" x="1090.85" y="0">𝑦</tspan></text><path d="M13.062-24.6787 14.4712-24.0645C13.9051-23.0768 13.3661-22.315 12.8542-21.7791 12.3424-21.2431 11.8516-20.8757 11.3818-20.677 10.9121-20.4783 10.3761-20.3789 9.77393-20.3789 9.37646-20.3789 9.02718-20.412 8.72607-20.4783 8.42497-20.5445 8.12988-20.6409 7.84082-20.7673 7.55176-20.8938 7.1001-21.1257 6.48584-21.4629 6.08838-21.6797 5.77222-21.8483 5.53735-21.9688 5.30249-22.0892 5.05859-22.1886 4.80566-22.2668 4.55273-22.3451 4.28776-22.3843 4.01074-22.3843 3.61328-22.3843 3.28507-22.3241 3.02612-22.2036 2.76717-22.0832 2.50521-21.8724 2.24023-21.5713 1.97526-21.2702 1.69824-20.8727 1.40918-20.3789L0-20.9932C0.710612-22.1494 1.29175-22.9534 1.74341-23.405 2.19507-23.8567 2.65576-24.1819 3.12549-24.3806 3.59521-24.5793 4.15527-24.6787 4.80566-24.6787 5.16699-24.6787 5.49219-24.6456 5.78125-24.5793 6.07031-24.5131 6.3383-24.4258 6.58521-24.3174 6.83211-24.209 7.25667-23.9922 7.85889-23.667 8.28044-23.4261 8.62069-23.2394 8.87964-23.1069 9.13859-22.9744 9.40055-22.8691 9.66553-22.7908 9.9305-22.7125 10.2376-22.6733 10.5869-22.6733 11.0566-22.6733 11.4782-22.8209 11.8516-23.116 12.2249-23.4111 12.6284-23.932 13.062-24.6787Z" transform="translate(1133.27 660)"/><path d="M1048.5 650.833 1110.81 650.833 1110.81 652.167 1048.5 652.167ZM1110.8 651.5 1105.47 644.833 1118.8 651.5 1105.47 658.167Z"/><rect x="371.5" y="594.5" width="160" height="113" fill="#FFFFFF"/><path d="M370.167 593.167 532.833 593.167 532.833 708.833 370.167 708.833ZM372.833 707.5 371.5 706.167 531.5 706.167 530.167 707.5 530.167 594.5 531.5 595.833 371.5 595.833 372.833 594.5Z"/><path d="M451.893 615.134 452.752 615.134C452.69 616.134 452.659 617.52 452.659 619.291L452.659 632.634C452.659 633.239 452.692 633.694 452.76 634.002 452.828 634.309 452.948 634.559 453.12 634.752 453.291 634.944 453.539 635.095 453.862 635.205 454.185 635.314 454.591 635.397 455.081 635.455 455.57 635.512 456.216 635.551 457.018 635.572L457.018 636.713 445.471 636.713 445.471 635.572C446.627 635.52 447.453 635.45 447.948 635.361 448.442 635.272 448.82 635.14 449.081 634.963 449.341 634.786 449.531 634.536 449.651 634.213 449.771 633.89 449.831 633.364 449.831 632.634L449.831 619.963C449.831 619.546 449.758 619.241 449.612 619.049 449.466 618.856 449.252 618.759 448.971 618.759 448.638 618.759 448.164 618.931 447.549 619.275 446.935 619.619 446.174 620.093 445.268 620.697L444.581 619.494Z" fill-rule="evenodd"/><text fill="#000000" fill-opacity="0" font-family="Arial,Arial_MSFontService,sans-serif" font-size="21.5781" x="444.581" y="634.015">1</text><path d="M425.76 668.886C425.072 668.886 424.372 669.222 423.658 669.894 422.945 670.566 422.374 671.344 421.947 672.23 421.52 673.115 421.129 674.365 420.775 675.98L420.65 676.558C420.484 677.329 420.4 678.084 420.4 678.824 420.4 679.584 420.528 680.131 420.783 680.464 421.038 680.798 421.468 680.964 422.072 680.964 422.593 680.964 423.067 680.847 423.494 680.613 423.921 680.378 424.325 679.996 424.705 679.464 425.085 678.933 425.455 678.248 425.814 677.41 426.174 676.571 426.484 675.568 426.744 674.402 427.004 673.235 427.135 672.152 427.135 671.152 427.135 670.381 427.023 669.811 426.799 669.441 426.575 669.071 426.228 668.886 425.76 668.886ZM418.869 666.589C419.734 666.589 420.424 666.831 420.939 667.316 421.455 667.8 421.713 668.438 421.713 669.23 421.713 669.49 421.682 669.74 421.619 669.98L421.775 670.105C422.734 668.886 423.661 667.996 424.557 667.433 425.452 666.871 426.489 666.589 427.666 666.589 428.843 666.589 429.757 667.016 430.408 667.871 431.059 668.725 431.385 669.959 431.385 671.574 431.385 672.98 431.182 674.376 430.775 675.761 430.369 677.147 429.786 678.342 429.025 679.347 428.265 680.352 427.309 681.144 426.158 681.722 425.007 682.3 423.708 682.589 422.26 682.589 421.333 682.589 420.437 682.428 419.572 682.105L418.978 684.886C418.885 685.344 418.817 685.701 418.775 685.956 418.734 686.212 418.713 686.449 418.713 686.667 418.713 687.115 418.83 687.438 419.064 687.636 419.299 687.834 419.702 687.964 420.275 688.027L420.103 689.058 413.603 689.058 417.557 671.48C417.713 670.782 417.791 670.266 417.791 669.933 417.791 669.589 417.734 669.324 417.619 669.136 417.504 668.949 417.307 668.855 417.025 668.855 416.702 668.855 416.353 669.001 415.978 669.292 415.603 669.584 415.166 670.016 414.666 670.589L413.541 669.464C414.583 668.402 415.507 667.657 416.314 667.23 417.122 666.803 417.973 666.589 418.869 666.589Z" fill-rule="evenodd"/><text fill="#000000" fill-opacity="0" font-family="Arial,Arial_MSFontService,sans-serif" font-size="22.4688" x="413.541" y="686.249">𝒑</text><path d="M450.956 663.152 453.175 663.152 453.175 672.152 461.691 672.152 461.691 674.23 453.175 674.23 453.175 683.23 450.956 683.23 450.956 674.23 442.441 674.23 442.441 672.152 450.956 672.152Z" fill-rule="evenodd"/><text fill="#000000" fill-opacity="0" font-family="Arial,Arial_MSFontService,sans-serif" font-size="20.0781" x="442.441" y="680.72">+</text><path d="M480.45 659.98C481.252 659.98 481.867 660.167 482.294 660.542 482.721 660.917 483.023 661.509 483.2 662.316 483.377 663.123 483.466 664.303 483.466 665.855 483.466 666.365 483.455 667.105 483.434 668.074L483.372 670.542C483.288 672.886 483.247 674.73 483.247 676.074 483.247 677.157 483.27 678.003 483.317 678.613 483.364 679.222 483.439 679.683 483.544 679.996 483.648 680.308 483.778 680.519 483.934 680.628 484.091 680.738 484.283 680.792 484.512 680.792 484.783 680.792 485.072 680.701 485.38 680.519 485.687 680.337 486.064 680.006 486.512 679.527L487.387 680.402C486.71 681.089 486.041 681.626 485.38 682.011 484.718 682.397 484.132 682.589 483.622 682.589 483.028 682.589 482.575 682.469 482.262 682.23 481.95 681.99 481.723 681.594 481.583 681.042 481.442 680.49 481.372 679.678 481.372 678.605 481.372 677.126 481.481 674.704 481.7 671.339L481.544 671.339C478.419 675.923 476.059 679.589 474.466 682.339L471.294 682.339 471.45 681.574C471.929 680.99 472.408 680.384 472.887 679.753 473.367 679.123 473.95 678.324 474.637 677.355L481.637 667.417C481.627 666.355 481.58 665.464 481.497 664.746 481.413 664.027 481.299 663.456 481.153 663.035 481.007 662.613 480.814 662.303 480.575 662.105 480.335 661.907 480.007 661.808 479.591 661.808 479.247 661.808 478.898 661.907 478.544 662.105 478.189 662.303 477.674 662.709 476.997 663.324L476.184 662.417C477.143 661.469 477.937 660.826 478.567 660.488 479.197 660.149 479.825 659.98 480.45 659.98Z" fill-rule="evenodd"/><text fill="#000000" fill-opacity="0" font-family="Arial,Arial_MSFontService,sans-serif" font-size="22.6094" x="471.294" y="679.763">𝜆</text><path d="M413.639 650.933 432.389 650.933 451.139 650.933 469.889 650.933 488.639 650.933 488.639 652.933 469.889 652.933 451.139 652.933 432.389 652.933 413.639 652.933Z" fill-rule="evenodd"/><rect x="888.5" y="594.5" width="160" height="113" fill="#FFFFFF"/><path d="M887.167 593.167 1049.83 593.167 1049.83 708.833 887.167 708.833ZM889.833 707.5 888.5 706.167 1048.5 706.167 1047.17 707.5 1047.17 594.5 1048.5 595.833 888.5 595.833 889.833 594.5Z"/><path d="M969.34 615.134 970.199 615.134C970.137 616.134 970.105 617.52 970.105 619.291L970.105 632.634C970.105 633.239 970.139 633.694 970.207 634.002 970.275 634.309 970.394 634.559 970.566 634.752 970.738 634.944 970.985 635.095 971.308 635.205 971.631 635.314 972.038 635.397 972.527 635.455 973.017 635.512 973.663 635.551 974.465 635.572L974.465 636.713 962.918 636.713 962.918 635.572C964.074 635.52 964.9 635.45 965.394 635.361 965.889 635.272 966.267 635.14 966.527 634.963 966.788 634.786 966.978 634.536 967.097 634.213 967.217 633.89 967.277 633.364 967.277 632.634L967.277 619.963C967.277 619.546 967.204 619.241 967.058 619.049 966.913 618.856 966.699 618.759 966.418 618.759 966.084 618.759 965.61 618.931 964.996 619.275 964.381 619.619 963.621 620.093 962.715 620.697L962.027 619.494Z" fill-rule="evenodd"/><text fill="#000000" fill-opacity="0" font-family="Arial,Arial_MSFontService,sans-serif" font-size="21.5781" x="962.027" y="634.015">1</text><path d="M943.206 668.886C942.519 668.886 941.818 669.222 941.105 669.894 940.391 670.566 939.821 671.344 939.394 672.23 938.967 673.115 938.576 674.365 938.222 675.98L938.097 676.558C937.93 677.329 937.847 678.084 937.847 678.824 937.847 679.584 937.975 680.131 938.23 680.464 938.485 680.798 938.915 680.964 939.519 680.964 940.04 680.964 940.514 680.847 940.941 680.613 941.368 680.378 941.771 679.996 942.152 679.464 942.532 678.933 942.902 678.248 943.261 677.41 943.62 676.571 943.93 675.568 944.191 674.402 944.451 673.235 944.581 672.152 944.581 671.152 944.581 670.381 944.469 669.811 944.245 669.441 944.021 669.071 943.675 668.886 943.206 668.886ZM936.316 666.589C937.18 666.589 937.87 666.831 938.386 667.316 938.902 667.8 939.159 668.438 939.159 669.23 939.159 669.49 939.128 669.74 939.066 669.98L939.222 670.105C940.18 668.886 941.107 667.996 942.003 667.433 942.899 666.871 943.935 666.589 945.113 666.589 946.29 666.589 947.204 667.016 947.855 667.871 948.506 668.725 948.831 669.959 948.831 671.574 948.831 672.98 948.628 674.376 948.222 675.761 947.816 677.147 947.232 678.342 946.472 679.347 945.711 680.352 944.756 681.144 943.605 681.722 942.454 682.3 941.154 682.589 939.706 682.589 938.779 682.589 937.883 682.428 937.019 682.105L936.425 684.886C936.331 685.344 936.264 685.701 936.222 685.956 936.18 686.212 936.159 686.449 936.159 686.667 936.159 687.115 936.277 687.438 936.511 687.636 936.745 687.834 937.149 687.964 937.722 688.027L937.55 689.058 931.05 689.058 935.003 671.48C935.159 670.782 935.238 670.266 935.238 669.933 935.238 669.589 935.18 669.324 935.066 669.136 934.951 668.949 934.753 668.855 934.472 668.855 934.149 668.855 933.8 669.001 933.425 669.292 933.05 669.584 932.613 670.016 932.113 670.589L930.988 669.464C932.029 668.402 932.954 667.657 933.761 667.23 934.568 666.803 935.42 666.589 936.316 666.589Z" fill-rule="evenodd"/><text fill="#000000" fill-opacity="0" font-family="Arial,Arial_MSFontService,sans-serif" font-size="22.4688" x="930.988" y="686.249">𝒑</text><path d="M968.403 663.152 970.622 663.152 970.622 672.152 979.137 672.152 979.137 674.23 970.622 674.23 970.622 683.23 968.403 683.23 968.403 674.23 959.887 674.23 959.887 672.152 968.403 672.152Z" fill-rule="evenodd"/><text fill="#000000" fill-opacity="0" font-family="Arial,Arial_MSFontService,sans-serif" font-size="20.0781" x="959.887" y="680.72">+</text><path d="M997.896 659.98C998.699 659.98 999.313 660.167 999.74 660.542 1000.17 660.917 1000.47 661.509 1000.65 662.316 1000.82 663.123 1000.91 664.303 1000.91 665.855 1000.91 666.365 1000.9 667.105 1000.88 668.074L1000.82 670.542C1000.74 672.886 1000.69 674.73 1000.69 676.074 1000.69 677.157 1000.72 678.003 1000.76 678.613 1000.81 679.222 1000.89 679.683 1000.99 679.996 1001.09 680.308 1001.22 680.519 1001.38 680.628 1001.54 680.738 1001.73 680.792 1001.96 680.792 1002.23 680.792 1002.52 680.701 1002.83 680.519 1003.13 680.337 1003.51 680.006 1003.96 679.527L1004.83 680.402C1004.16 681.089 1003.49 681.626 1002.83 682.011 1002.16 682.397 1001.58 682.589 1001.07 682.589 1000.47 682.589 1000.02 682.469 999.709 682.23 999.396 681.99 999.17 681.594 999.029 681.042 998.889 680.49 998.818 679.678 998.818 678.605 998.818 677.126 998.928 674.704 999.146 671.339L998.99 671.339C995.865 675.923 993.506 679.589 991.912 682.339L988.74 682.339 988.896 681.574C989.376 680.99 989.855 680.384 990.334 679.753 990.813 679.123 991.396 678.324 992.084 677.355L999.084 667.417C999.074 666.355 999.027 665.464 998.943 664.746 998.86 664.027 998.745 663.456 998.6 663.035 998.454 662.613 998.261 662.303 998.021 662.105 997.782 661.907 997.454 661.808 997.037 661.808 996.693 661.808 996.344 661.907 995.99 662.105 995.636 662.303 995.12 662.709 994.443 663.324L993.631 662.417C994.589 661.469 995.383 660.826 996.014 660.488 996.644 660.149 997.271 659.98 997.896 659.98Z" fill-rule="evenodd"/><text fill="#000000" fill-opacity="0" font-family="Arial,Arial_MSFontService,sans-serif" font-size="22.6094" x="988.74" y="679.763">𝜆</text><path d="M931.086 650.933 949.836 650.933 968.586 650.933 987.336 650.933 1006.09 650.933 1006.09 652.933 987.336 652.933 968.586 652.933 949.836 652.933 931.086 652.933Z" fill-rule="evenodd"/></g></svg>