<svg width="386" height="386" xmlns="http://www.w3.org/2000/svg" xmlns:xlink="http://www.w3.org/1999/xlink" overflow="hidden"><defs><clipPath id="clip0"><rect x="515" y="173" width="386" height="386"/></clipPath></defs><g clip-path="url(#clip0)" transform="translate(-515 -173)"><path d="M516.029 558.061 516.029 173.061 765.962 173.061 822.06 229.305C824.842 226.404 827.542 223.725 830.157 221.27 832.773 218.815 835.5 216.695 838.338 214.909 841.177 213.123 844.265 211.729 847.604 210.724 850.943 209.72 854.728 209.218 858.957 209.218 864.634 209.218 869.977 210.278 874.985 212.398 879.994 214.519 884.335 217.448 888.008 221.186 891.68 224.925 894.603 229.277 896.773 234.243 898.943 239.209 900.029 244.537 900.029 250.229 900.029 255.697 898.999 260.914 896.94 265.88 894.881 270.846 891.903 275.282 888.008 279.187L828.07 339.448 828.07 558.061Z" fill-rule="evenodd"/><path d="M804.029 534.061 540.029 534.061 540.029 198.061 755.938 198.061 767.961 235.469 804.029 245.99Z" fill="#FFFFFF" fill-rule="evenodd"/><path d="M756.029 246.062 756.029 198.061 804.029 246.062Z" fill="#E5E5E5" fill-rule="evenodd"/><path d="M564.029 269.243 780.029 269.243 780.029 281.304 564.029 281.304ZM564.029 389.683 564.029 377.623 780.029 377.623 780.029 389.683ZM564.029 461.88 564.029 449.819 768.011 449.819 768.011 461.88ZM768.011 341.44 768.011 353.501 564.029 353.501 564.029 341.44ZM755.992 305.425 755.992 317.486 564.029 317.486 564.029 305.425ZM755.992 413.804 755.992 425.698 564.029 425.698 564.029 413.804ZM672.029 233.062 672.029 245.122 564.029 245.122 564.029 233.062ZM564.029 498.062 564.029 486.001 624.121 486.001 612.103 498.062Z" fill="#A6A6A6" fill-rule="evenodd"/><path d="M840.032 245.733 857.308 245.062 866.029 252.275 864.016 269.887 840.032 294.042 819.402 297.062 813.029 288.003C813.029 287.556 813.168 286.382 813.448 284.481 813.727 282.58 814.035 280.567 814.371 278.442 814.706 276.318 815.014 274.388 815.293 272.655 815.573 270.922 815.768 270 815.88 269.887Z" fill="#CCCCCC" fill-rule="evenodd"/><path d="M636.029 485.99 612.029 498.062 624.028 473.918 641.029 470.062Z" fill="#757575" fill-rule="evenodd"/><path d="M636.096 450.164 684.029 428.061 660.062 474.096 636.096 486.061 624.029 474.096Z" fill="#F7D7C4" fill-rule="evenodd"/><path d="M659.901 474.061 659.901 462.042 648.049 462.042 648.049 450.022 636.029 450.022 815.99 270.061 840.029 294.101Z" fill="#FFC83D" fill-rule="evenodd"/><path d="M876.029 250.536C876.029 252.819 875.666 254.846 874.94 256.616 874.215 258.387 873.266 260.014 872.094 261.498 870.922 262.983 869.638 264.41 868.243 265.781 866.848 267.151 865.424 268.579 863.973 270.063L840.029 245.396C841.369 244.026 842.708 242.598 844.048 241.114 845.387 239.629 846.81 238.288 848.317 237.088 849.824 235.889 851.443 234.919 853.173 234.177 854.903 233.434 856.829 233.063 858.95 233.063 863.638 233.063 867.657 234.776 871.005 238.202 874.355 241.514 876.029 245.625 876.029 250.536Z" fill="#EE9889" fill-rule="evenodd"/></g></svg>